<svg xmlns="http://www.w3.org/2000/svg" viewBox="0 0 200 200" width="100%" height="100%">
  <defs>
    <linearGradient id="bgGrad" x1="0%" y1="0%" x2="100%" y2="100%">
      <stop offset="0%" stop-color="#2563eb" />
      <stop offset="100%" stop-color="#38bdf8" />
    </linearGradient>
  </defs>
  <rect width="200" height="200" fill="url(#bgGrad)" />
  <!-- Head -->
  <circle cx="100" cy="75" r="38" fill="#fde047" />
  <!-- Hair / Cap -->
  <path d="M62 70 C62 35, 138 35, 138 70 C130 55, 70 55, 62 70 Z" fill="#1e293b" />
  <!-- Glasses -->
  <rect x="74" y="66" width="22" height="15" rx="3" fill="none" stroke="#0f172a" stroke-width="3" />
  <rect x="104" y="66" width="22" height="15" rx="3" fill="none" stroke="#0f172a" stroke-width="3" />
  <line x1="96" y1="73" x2="104" y2="73" stroke="#0f172a" stroke-width="3" />
  <!-- Smile -->
  <path d="M88 95 Q100 105 112 95" fill="none" stroke="#0f172a" stroke-width="3" stroke-linecap="round" />
  <!-- Body / Hoodie -->
  <path d="M40 185 C40 135, 65 125, 100 125 C135 125, 160 135, 160 185 Z" fill="#0f172a" />
  <polygon points="90,125 100,145 110,125" fill="#fde047" />
</svg>
